RobotoSerifMicro-RegularWideItalic.ufo
<glyph name="plus" format="2">
  <advance width="678"/>
  <unicode hex="002B"/>
  <outline>
    <contour>
      <point x="390" y="578" type="line"/>
      <point x="314" y="104" type="line"/>
      <point x="396" y="104" type="line"/>
      <point x="472" y="578" type="line"/>
    </contour>
    <contour>
      <point x="650" y="378" type="line"/>
      <point x="148" y="378" type="line"/>
      <point x="136" y="304" type="line"/>
      <point x="638" y="304" type="line"/>
    </contour>
  </outline>
</glyph>
<glyph name="three" format="2">
  <advance width="678"/>
  <unicode hex="0033"/>
  <guideline x="258" y="368" angle="81" identifier="ZkmwR1XQZw"/>
  <outline>
    <contour>
      <point x="348" y="-26" type="curve" smooth="yes"/>
      <point x="443.0" y="-26.0"/>
      <point x="529" y="19"/>
      <point x="529" y="140" type="curve" smooth="yes"/>
      <point x="529" y="225"/>
      <point x="467.0" y="259.0"/>
      <point x="333" y="259" type="curve" smooth="yes"/>
      <point x="241" y="259" type="line"/>
      <point x="251" y="321" type="line"/>
      <point x="327" y="321" type="line" smooth="yes"/>
      <point x="457.0" y="321.0"/>
      <point x="553" y="359"/>
      <point x="553" y="474" type="curve" smooth="yes"/>
      <point x="553.0" y="552.0"/>
      <point x="502" y="586"/>
      <point x="415" y="585" type="curve" smooth="yes"/>
      <point x="341" y="584"/>
      <point x="284" y="563"/>
      <point x="238" y="529" type="curve"/>
      <point x="234" y="543"/>
      <point x="253" y="588"/>
      <point x="287" y="592" type="curve"/>
      <point x="264" y="443" type="line"/>
      <point x="174" y="443" type="line"/>
      <point x="196" y="586" type="line"/>
      <point x="256" y="619"/>
      <point x="337" y="649"/>
      <point x="439" y="649" type="curve" smooth="yes"/>
      <point x="571.0" y="649.0"/>
      <point x="648" y="584"/>
      <point x="648" y="491" type="curve" smooth="yes"/>
      <point x="648.0" y="347.0"/>
      <point x="511" y="292"/>
      <point x="368" y="289" type="curve"/>
      <point x="476" y="312" type="line"/>
      <point x="470" y="273" type="line"/>
      <point x="381" y="294" type="line"/>
      <point x="559" y="292"/>
      <point x="623" y="233"/>
      <point x="623" y="135" type="curve" smooth="yes"/>
      <point x="623" y="-12"/>
      <point x="499" y="-90"/>
      <point x="338" y="-90" type="curve" smooth="yes"/>
      <point x="200" y="-90"/>
      <point x="102" y="-29"/>
      <point x="64" y="70" type="curve"/>
      <point x="138" y="104" type="line"/>
      <point x="178" y="21"/>
      <point x="240" y="-26"/>
    </contour>
  </outline>
</glyph>
<glyph name="six" format="2">
  <advance width="681"/>
  <unicode hex="0036"/>
  <guideline x="585" y="520" angle="81" identifier="bCqnKMCBy4"/>
  <outline>
    <contour>
      <point x="358" y="-10" type="curve" smooth="yes"/>
      <point x="540" y="-10"/>
      <point x="650" y="112"/>
      <point x="650" y="272" type="curve" smooth="yes"/>
      <point x="650" y="383"/>
      <point x="582" y="468"/>
      <point x="437" y="468" type="curve" smooth="yes"/>
      <point x="322" y="468"/>
      <point x="236" y="404"/>
      <point x="175" y="293" type="curve"/>
      <point x="177" y="251" type="line"/>
      <point x="256" y="372"/>
      <point x="328" y="410"/>
      <point x="417" y="410" type="curve" smooth="yes"/>
      <point x="468" y="410"/>
      <point x="504" y="393"/>
      <point x="525" y="366" type="curve" smooth="yes"/>
      <point x="546" y="339"/>
      <point x="557" y="303"/>
      <point x="557" y="261" type="curve" smooth="yes"/>
      <point x="557" y="136"/>
      <point x="481" y="54"/>
      <point x="370" y="54" type="curve" smooth="yes"/>
      <point x="260" y="54"/>
      <point x="201" y="120"/>
      <point x="201" y="255" type="curve" smooth="yes"/>
      <point x="201" y="353"/>
      <point x="227" y="437"/>
      <point x="258" y="485" type="curve" smooth="yes"/>
      <point x="332" y="599"/>
      <point x="437" y="660"/>
      <point x="662" y="677" type="curve"/>
      <point x="672" y="740" type="line"/>
      <point x="281" y="717"/>
      <point x="110" y="505"/>
      <point x="110" y="255" type="curve" smooth="yes"/>
      <point x="110" y="71"/>
      <point x="215" y="-10"/>
    </contour>
  </outline>
</glyph>
<glyph name="O" format="2">
  <advance width="974"/>
  <unicode hex="004F"/>
  <anchor x="490" y="741" name="top"/>
  <anchor x="490" y="0" name="bottom"/>
  <outline>
    <contour>
      <point x="960" y="386" type="curve" smooth="yes"/>
      <point x="960" y="601"/>
      <point x="814" y="735"/>
      <point x="580" y="735" type="curve"/>
      <point x="242" y="735"/>
      <point x="126" y="489"/>
      <point x="126" y="324" type="curve" smooth="yes"/>
      <point x="126" y="109"/>
      <point x="272" y="-25"/>
      <point x="506" y="-25" type="curve"/>
      <point x="844" y="-25"/>
      <point x="960" y="221"/>
    </contour>
    <contour>
      <point x="516" y="37" type="curve" smooth="yes"/>
      <point x="430" y="37"/>
      <point x="359" y="61"/>
      <point x="309" y="107" type="curve" smooth="yes"/>
      <point x="257" y="155"/>
      <point x="227" y="227"/>
      <point x="227" y="323" type="curve" smooth="yes"/>
      <point x="227" y="498"/>
      <point x="329" y="673"/>
      <point x="572" y="673" type="curve" smooth="yes"/>
      <point x="667" y="673"/>
      <point x="743" y="644"/>
      <point x="794" y="589" type="curve" smooth="yes"/>
      <point x="837" y="541"/>
      <point x="861" y="473"/>
      <point x="861" y="387" type="curve" smooth="yes"/>
      <point x="861" y="212"/>
      <point x="759" y="37"/>
    </contour>
  </outline>
</glyph>
<glyph name="T" format="2">
  <advance width="827"/>
  <unicode hex="0054"/>
  <anchor x="450" y="741" name="top"/>
  <anchor x="450" y="0" name="bottom"/>
  <outline>
    <contour>
      <point x="384" y="98" type="line" smooth="yes"/>
      <point x="379" y="69"/>
      <point x="342" y="62"/>
      <point x="293" y="62" type="curve" smooth="yes"/>
      <point x="246" y="62" type="line"/>
      <point x="236" y="0" type="line"/>
      <point x="593" y="0" type="line"/>
      <point x="603" y="62" type="line"/>
      <point x="554" y="62" type="line" smooth="yes"/>
      <point x="504.32" y="62.0"/>
      <point x="471" y="70"/>
      <point x="475" y="98" type="curve" smooth="yes"/>
      <point x="562" y="650" type="line"/>
      <point x="678" y="650" type="line" smooth="yes"/>
      <point x="763" y="650"/>
      <point x="792" y="641"/>
      <point x="791" y="605" type="curve" smooth="yes"/>
      <point x="788" y="471" type="line"/>
      <point x="852" y="471" type="line"/>
      <point x="889" y="710" type="line"/>
      <point x="162" y="710" type="line"/>
      <point x="125" y="471" type="line"/>
      <point x="189" y="471" type="line"/>
      <point x="228" y="605" type="line" smooth="yes"/>
      <point x="239" y="641"/>
      <point x="269" y="650"/>
      <point x="355" y="650" type="curve" smooth="yes"/>
      <point x="471" y="650" type="line"/>
    </contour>
  </outline>
</glyph>
<glyph name="underscore" format="2">
  <advance width="731"/>
  <unicode hex="005F"/>
  <guideline x="-1" y="-90" angle="81" identifier="8nUT67QiV1"/>
  <outline>
    <contour>
      <point x="5" y="-98" type="line"/>
      <point x="-4" y="-152" type="line"/>
      <point x="686" y="-152" type="line"/>
      <point x="695" y="-98" type="line"/>
    </contour>
  </outline>
</glyph>
<glyph name="c" format="2">
  <advance width="668"/>
  <unicode hex="0063"/>
  <anchor x="374" y="565" name="top"/>
  <anchor x="384" y="0" name="bottom"/>
  <outline>
    <contour>
      <point x="476" y="575" type="curve" smooth="yes"/>
      <point x="242" y="575"/>
      <point x="103" y="420"/>
      <point x="103" y="228" type="curve" smooth="yes"/>
      <point x="103" y="81"/>
      <point x="191" y="-13"/>
      <point x="359" y="-13" type="curve" smooth="yes"/>
      <point x="480" y="-13"/>
      <point x="574" y="34"/>
      <point x="633" y="113" type="curve"/>
      <point x="582" y="154" type="line"/>
      <point x="533" y="92"/>
      <point x="471" y="52"/>
      <point x="378" y="52" type="curve" smooth="yes"/>
      <point x="263" y="52"/>
      <point x="198" y="107"/>
      <point x="198" y="236" type="curve" smooth="yes"/>
      <point x="198" y="376"/>
      <point x="284" y="513"/>
      <point x="463" y="513" type="curve" smooth="yes"/>
      <point x="546.0" y="513.0"/>
      <point x="586" y="494"/>
      <point x="619" y="474" type="curve"/>
      <point x="615" y="485"/>
      <point x="601" y="512"/>
      <point x="579" y="521" type="curve"/>
      <point x="554" y="366" type="line"/>
      <point x="644" y="366" type="line"/>
      <point x="671" y="534" type="line"/>
      <point x="628" y="558"/>
      <point x="564" y="575"/>
    </contour>
  </outline>
</glyph>
<glyph name="i" format="2">
  <advance width="428"/>
  <unicode hex="0069"/>
  <anchor x="278" y="565" name="top"/>
  <anchor x="327" y="-10" name="right"/>
  <anchor x="276" y="-10" name="bottom"/>
  <outline>
    <contour>
      <point x="249" y="452" type="curve" smooth="yes"/>
      <point x="209" y="223" type="line" smooth="yes"/>
      <point x="192" y="127"/>
      <point x="186" y="97"/>
      <point x="186" y="73" type="curve" smooth="yes"/>
      <point x="186" y="20"/>
      <point x="217" y="0"/>
      <point x="293" y="0" type="curve" smooth="yes"/>
      <point x="337" y="0"/>
      <point x="372" y="0"/>
      <point x="406" y="0" type="curve"/>
      <point x="414" y="50" type="line"/>
      <point x="384" y="50"/>
      <point x="354" y="50"/>
      <point x="317" y="50" type="curve" smooth="yes"/>
      <point x="290" y="50"/>
      <point x="278" y="58"/>
      <point x="278" y="83" type="curve" smooth="yes"/>
      <point x="278" y="102"/>
      <point x="282" y="136"/>
      <point x="297" y="218" type="curve" smooth="yes"/>
      <point x="359" y="565" type="line"/>
      <point x="140" y="565" type="line"/>
      <point x="132" y="512" type="line"/>
      <point x="175" y="507" type="line" smooth="yes"/>
      <point x="248" y="499"/>
      <point x="255" y="485"/>
    </contour>
    <contour>
      <point x="338" y="676" type="curve" smooth="yes"/>
      <point x="382" y="676"/>
      <point x="415" y="696"/>
      <point x="415" y="742" type="curve" smooth="yes"/>
      <point x="415" y="786"/>
      <point x="382" y="807"/>
      <point x="338" y="807" type="curve" smooth="yes"/>
      <point x="292" y="807"/>
      <point x="261" y="786"/>
      <point x="261" y="742" type="curve" smooth="yes"/>
      <point x="261" y="696"/>
      <point x="292" y="676"/>
    </contour>
  </outline>
</glyph>
<glyph name="w" format="2">
  <advance width="1041"/>
  <unicode hex="0077"/>
  <anchor x="590" y="565" name="top"/>
  <outline>
    <contour>
      <point x="616" y="565" type="line"/>
      <point x="529" y="387"/>
      <point x="440" y="209"/>
      <point x="353" y="31" type="curve"/>
      <point x="370" y="22" type="line"/>
      <point x="298" y="565" type="line"/>
      <point x="114" y="565" type="line"/>
      <point x="107" y="515" type="line"/>
      <point x="130" y="513" type="line" smooth="yes"/>
      <point x="202" y="507"/>
      <point x="222" y="492"/>
      <point x="226" y="462" type="curve" smooth="yes"/>
      <point x="290" y="-4" type="line"/>
      <point x="393" y="-4" type="line"/>
      <point x="480" y="161"/>
      <point x="563" y="325"/>
      <point x="646" y="490" type="curve"/>
      <point x="623" y="476" type="line"/>
      <point x="692" y="-4" type="line"/>
      <point x="792" y="-4" type="line"/>
      <point x="898" y="183"/>
      <point x="1001" y="369"/>
      <point x="1103" y="556" type="curve"/>
      <point x="1103" y="565" type="line"/>
      <point x="1010" y="565" type="line"/>
      <point x="928" y="387"/>
      <point x="843" y="209"/>
      <point x="757" y="31" type="curve"/>
      <point x="768" y="20" type="line"/>
      <point x="696" y="565" type="line"/>
    </contour>
  </outline>
</glyph>
<glyph name="asciitilde" format="2">
  <advance width="659"/>
  <unicode hex="007E"/>
  <outline>
    <contour>
      <point x="288" y="471" type="curve" smooth="yes"/>
      <point x="175" y="471"/>
      <point x="130" y="392"/>
      <point x="88" y="269" type="curve"/>
      <point x="150" y="252" type="line"/>
      <point x="184" y="343"/>
      <point x="209" y="403"/>
      <point x="272" y="403" type="curve" smooth="yes"/>
      <point x="368" y="403"/>
      <point x="344" y="253"/>
      <point x="489" y="253" type="curve" smooth="yes"/>
      <point x="586" y="253"/>
      <point x="641" y="321"/>
      <point x="684" y="456" type="curve"/>
      <point x="622" y="473" type="line"/>
      <point x="595" y="384"/>
      <point x="564" y="321"/>
      <point x="505" y="321" type="curve" smooth="yes"/>
      <point x="408" y="321"/>
      <point x="437" y="471"/>
    </contour>
  </outline>
</glyph>
<glyph name="yen" format="2">
  <advance width="686"/>
  <unicode hex="00A5"/>
  <outline>
    <contour>
      <point x="27" y="215" type="line"/>
      <point x="11" y="164" type="line"/>
      <point x="571" y="164" type="line"/>
      <point x="588" y="215" type="line"/>
    </contour>
    <contour>
      <point x="78" y="383" type="line"/>
      <point x="62" y="331" type="line"/>
      <point x="623" y="331" type="line"/>
      <point x="638" y="383" type="line"/>
    </contour>
    <contour>
      <point x="312" y="378" type="line"/>
      <point x="225" y="92" type="line" smooth="yes"/>
      <point x="216" y="63"/>
      <point x="168" y="56"/>
      <point x="106" y="56" type="curve" smooth="yes"/>
      <point x="78" y="56" type="line"/>
      <point x="60" y="0" type="line"/>
      <point x="421" y="0" type="line"/>
      <point x="439" y="56" type="line"/>
      <point x="411" y="56" type="line" smooth="yes"/>
      <point x="348" y="56"/>
      <point x="305" y="63"/>
      <point x="314" y="92" type="curve" smooth="yes"/>
      <point x="401" y="378" type="line"/>
    </contour>
    <contour>
      <point x="377" y="331" type="line"/>
      <point x="657" y="607" type="line" smooth="yes"/>
      <point x="692" y="640"/>
      <point x="718" y="654"/>
      <point x="750" y="654" type="curve" smooth="yes"/>
      <point x="760" y="654" type="line"/>
      <point x="778" y="710" type="line"/>
      <point x="544" y="710" type="line"/>
      <point x="527" y="654" type="line"/>
      <point x="534" y="654" type="line" smooth="yes"/>
      <point x="571" y="654"/>
      <point x="606" y="644"/>
      <point x="601" y="631" type="curve"/>
      <point x="348" y="374" type="line"/>
      <point x="376" y="376" type="line"/>
      <point x="268" y="643" type="line"/>
      <point x="270" y="650"/>
      <point x="305" y="654"/>
      <point x="341" y="654" type="curve" smooth="yes"/>
      <point x="356" y="654" type="line"/>
      <point x="373" y="710" type="line"/>
      <point x="130" y="710" type="line"/>
      <point x="112" y="654" type="line"/>
      <point x="122" y="654" type="line" smooth="yes"/>
      <point x="157" y="654"/>
      <point x="173" y="649"/>
      <point x="186" y="620" type="curve" smooth="yes"/>
      <point x="307" y="332" type="line"/>
    </contour>
  </outline>
</glyph>
<glyph name="section" format="2">
  <advance width="773"/>
  <unicode hex="00A7"/>
  <outline>
    <contour>
      <point x="248" y="-236" type="curve" smooth="yes"/>
      <point x="412" y="-236"/>
      <point x="549" y="-168"/>
      <point x="549" y="-45" type="curve" smooth="yes"/>
      <point x="549" y="48"/>
      <point x="450" y="105"/>
      <point x="343" y="154" type="curve" smooth="yes"/>
      <point x="234" y="204"/>
      <point x="147" y="233"/>
      <point x="147" y="301" type="curve" smooth="yes"/>
      <point x="147" y="379"/>
      <point x="220" y="401"/>
      <point x="348" y="400" type="curve"/>
      <point x="316" y="443" type="line"/>
      <point x="156" y="444"/>
      <point x="55" y="392"/>
      <point x="55" y="293" type="curve" smooth="yes"/>
      <point x="55" y="202"/>
      <point x="154" y="158"/>
      <point x="267" y="106" type="curve" smooth="yes"/>
      <point x="366" y="61"/>
      <point x="456" y="24"/>
      <point x="456" y="-50" type="curve" smooth="yes"/>
      <point x="456" y="-133"/>
      <point x="376" y="-181"/>
      <point x="249" y="-181" type="curve" smooth="yes"/>
      <point x="147" y="-181"/>
      <point x="87" y="-165"/>
      <point x="40" y="-134" type="curve"/>
      <point x="35" y="-145"/>
      <point x="41" y="-155"/>
      <point x="71" y="-181" type="curve"/>
      <point x="114" y="-36" type="line"/>
      <point x="10" y="-36" type="line"/>
      <point x="-32" y="-176" type="line"/>
      <point x="17" y="-200"/>
      <point x="95" y="-236"/>
    </contour>
    <contour>
      <point x="461" y="50" type="line"/>
      <point x="604" y="52"/>
      <point x="706" y="101"/>
      <point x="706" y="206" type="curve" smooth="yes"/>
      <point x="706" y="299"/>
      <point x="594" y="340"/>
      <point x="490" y="397" type="curve" smooth="yes"/>
      <point x="398" y="446"/>
      <point x="309" y="485"/>
      <point x="309" y="555" type="curve" smooth="yes"/>
      <point x="309" y="623"/>
      <point x="366" y="666"/>
      <point x="504" y="666" type="curve" smooth="yes"/>
      <point x="609" y="666"/>
      <point x="667" y="648"/>
      <point x="702" y="624" type="curve"/>
      <point x="705" y="632"/>
      <point x="689" y="665"/>
      <point x="656" y="668" type="curve"/>
      <point x="616" y="536" type="line"/>
      <point x="716" y="536" type="line"/>
      <point x="757" y="673" type="line"/>
      <point x="725" y="691"/>
      <point x="641" y="720"/>
      <point x="505" y="720" type="curve" smooth="yes"/>
      <point x="310" y="720"/>
      <point x="215" y="651"/>
      <point x="215" y="551" type="curve" smooth="yes"/>
      <point x="215" y="459"/>
      <point x="316" y="399"/>
      <point x="414" y="349" type="curve" smooth="yes"/>
      <point x="514" y="295"/>
      <point x="614" y="261"/>
      <point x="614" y="193" type="curve" smooth="yes"/>
      <point x="614" y="121"/>
      <point x="541" y="97"/>
      <point x="418" y="94" type="curve"/>
    </contour>
  </outline>
</glyph>
<glyph name="degree" format="2">
  <advance width="662"/>
  <unicode hex="00B0"/>
  <outline>
    <contour>
      <point x="350" y="423" type="curve" smooth="yes"/>
      <point x="256" y="423"/>
      <point x="201" y="466"/>
      <point x="201" y="551" type="curve" smooth="yes"/>
      <point x="201" y="634"/>
      <point x="256" y="678"/>
      <point x="350" y="678" type="curve" smooth="yes"/>
      <point x="443" y="678"/>
      <point x="499" y="634"/>
      <point x="499" y="551" type="curve" smooth="yes"/>
      <point x="499" y="466"/>
      <point x="443" y="423"/>
    </contour>
    <contour>
      <point x="350" y="366" type="curve" smooth="yes"/>
      <point x="486" y="366"/>
      <point x="584" y="435"/>
      <point x="584" y="551" type="curve" smooth="yes"/>
      <point x="584" y="666"/>
      <point x="486" y="735"/>
      <point x="350" y="735" type="curve" smooth="yes"/>
      <point x="214" y="735"/>
      <point x="116" y="666"/>
      <point x="116" y="551" type="curve" smooth="yes"/>
      <point x="116" y="435"/>
      <point x="214" y="366"/>
    </contour>
  </outline>
</glyph>
<glyph name="paragraph" format="2">
  <advance width="815"/>
  <unicode hex="00B6"/>
  <outline>
    <contour>
      <point x="867" y="710" type="line"/>
      <point x="850" y="654" type="line"/>
      <point x="836" y="654" type="line" smooth="yes"/>
      <point x="777" y="654"/>
      <point x="730" y="647"/>
      <point x="721" y="618" type="curve" smooth="yes"/>
      <point x="532" y="0" type="line"/>
      <point x="460" y="0" type="line"/>
      <point x="678" y="710" type="line"/>
    </contour>
    <contour>
      <point x="714" y="710" type="line"/>
      <point x="696" y="654" type="line"/>
      <point x="465" y="654" type="line"/>
      <point x="483" y="710" type="line"/>
    </contour>
    <contour>
      <point x="303" y="0" type="line"/>
      <point x="231" y="0" type="line"/>
      <point x="329" y="326" type="line"/>
      <point x="325" y="326" type="line" smooth="yes"/>
      <point x="200" y="326"/>
      <point x="120" y="396"/>
      <point x="120" y="495" type="curve" smooth="yes"/>
      <point x="120" y="616"/>
      <point x="228" y="710"/>
      <point x="428" y="710" type="curve" smooth="yes"/>
      <point x="521" y="710" type="line"/>
    </contour>
  </outline>
</glyph>
<glyph name="ordmasculine" format="2">
  <advance width="668"/>
  <unicode hex="00BA"/>
  <outline>
    <contour>
      <point x="337" y="312" type="curve" smooth="yes"/>
      <point x="531" y="312"/>
      <point x="619" y="448"/>
      <point x="619" y="572" type="curve" smooth="yes"/>
      <point x="619" y="667"/>
      <point x="541" y="730"/>
      <point x="409" y="730" type="curve" smooth="yes"/>
      <point x="215" y="730"/>
      <point x="128" y="594"/>
      <point x="128" y="470" type="curve" smooth="yes"/>
      <point x="128" y="375"/>
      <point x="205" y="312"/>
    </contour>
    <contour>
      <point x="406" y="681" type="curve" smooth="yes"/>
      <point x="489" y="681"/>
      <point x="528" y="646"/>
      <point x="528" y="578" type="curve" smooth="yes"/>
      <point x="528" y="537"/>
      <point x="520" y="492"/>
      <point x="499" y="453" type="curve" smooth="yes"/>
      <point x="472" y="397"/>
      <point x="421" y="361"/>
      <point x="341" y="361" type="curve" smooth="yes"/>
      <point x="257" y="361"/>
      <point x="218" y="395"/>
      <point x="218" y="463" type="curve" smooth="yes"/>
      <point x="218" y="503"/>
      <point x="227" y="549"/>
      <point x="247" y="588" type="curve" smooth="yes"/>
      <point x="275" y="644"/>
      <point x="325" y="681"/>
    </contour>
  </outline>
</glyph>
<glyph name="Eth" format="2">
  <advance width="964"/>
  <unicode hex="00D0"/>
  <outline>
    <contour>
      <point x="54" y="332" type="line"/>
      <point x="535" y="332" type="line"/>
      <point x="552" y="388" type="line"/>
      <point x="70" y="388" type="line"/>
    </contour>
    <component base="D"/>
  </outline>
</glyph>
<glyph name="icircumflex" format="2">
  <advance width="422"/>
  <unicode hex="00EE"/>
  <outline>
    <contour>
      <point x="351" y="844" type="line"/>
      <point x="444" y="676" type="line"/>
      <point x="438" y="656" type="line"/>
      <point x="396" y="656" type="line"/>
      <point x="251" y="802" type="line"/>
      <point x="321" y="784" type="line"/>
      <point x="123" y="656" type="line"/>
      <point x="76" y="656" type="line"/>
      <point x="82" y="676" type="line"/>
      <point x="271" y="844" type="line"/>
    </contour>
    <component base="dotlessi"/>
  </outline>
</glyph>
<glyph name="divide" format="2">
  <advance width="686"/>
  <unicode hex="00F7"/>
  <outline>
    <contour>
      <point x="519" y="578" type="curve" smooth="yes"/>
      <point x="519" y="624"/>
      <point x="477" y="654"/>
      <point x="418" y="654" type="curve" smooth="yes"/>
      <point x="361" y="654"/>
      <point x="319" y="624"/>
      <point x="319" y="578" type="curve" smooth="yes"/>
      <point x="319" y="533"/>
      <point x="361" y="502"/>
      <point x="418" y="502" type="curve" smooth="yes"/>
      <point x="477" y="502"/>
      <point x="519" y="533"/>
    </contour>
    <contour>
      <point x="376" y="104" type="curve" smooth="yes"/>
      <point x="376" y="150"/>
      <point x="333" y="180"/>
      <point x="275" y="180" type="curve" smooth="yes"/>
      <point x="218" y="180"/>
      <point x="176" y="150"/>
      <point x="176" y="104" type="curve" smooth="yes"/>
      <point x="176" y="59"/>
      <point x="218" y="28"/>
      <point x="275" y="28" type="curve" smooth="yes"/>
      <point x="333" y="28"/>
      <point x="376" y="59"/>
    </contour>
    <component base="minus"/>
  </outline>
</glyph>
<glyph name="Hbar" format="2">
  <advance width="1045"/>
  <unicode hex="0126"/>
  <outline>
    <contour>
      <point x="274" y="372" type="line"/>
      <point x="259" y="322" type="line"/>
      <point x="777" y="322" type="line"/>
      <point x="793" y="372" type="line"/>
    </contour>
    <contour>
      <point x="108" y="486" type="line"/>
      <point x="1027" y="486" type="line"/>
      <point x="1042" y="535" type="line"/>
      <point x="122" y="535" type="line"/>
    </contour>
    <contour>
      <point x="-34" y="0" type="line"/>
      <point x="299" y="0" type="line"/>
      <point x="317" y="58" type="line"/>
      <point x="306" y="58" type="line" smooth="yes"/>
      <point x="259" y="58"/>
      <point x="201" y="61"/>
      <point x="203" y="68" type="curve" smooth="yes"/>
      <point x="379" y="642" type="line" smooth="yes"/>
      <point x="382" y="649"/>
      <point x="441" y="652"/>
      <point x="488" y="652" type="curve" smooth="yes"/>
      <point x="499" y="652" type="line"/>
      <point x="517" y="710" type="line"/>
      <point x="185" y="710" type="line"/>
      <point x="167" y="652" type="line"/>
      <point x="180" y="652" type="line" smooth="yes"/>
      <point x="240" y="652"/>
      <point x="282" y="645"/>
      <point x="273" y="616" type="curve" smooth="yes"/>
      <point x="113" y="94" type="line" smooth="yes"/>
      <point x="104" y="65"/>
      <point x="58" y="58"/>
      <point x="-2" y="58" type="curve" smooth="yes"/>
      <point x="-16" y="58" type="line"/>
    </contour>
    <contour>
      <point x="536" y="0" type="line"/>
      <point x="869" y="0" type="line"/>
      <point x="887" y="58" type="line"/>
      <point x="874" y="58" type="line" smooth="yes"/>
      <point x="814" y="58"/>
      <point x="772" y="65"/>
      <point x="781" y="94" type="curve" smooth="yes"/>
      <point x="941" y="616" type="line" smooth="yes"/>
      <point x="949" y="645"/>
      <point x="996" y="652"/>
      <point x="1056" y="652" type="curve" smooth="yes"/>
      <point x="1069" y="652" type="line"/>
      <point x="1087" y="710" type="line"/>
      <point x="755" y="710" type="line"/>
      <point x="737" y="652" type="line"/>
      <point x="748" y="652" type="line" smooth="yes"/>
      <point x="794" y="652"/>
      <point x="853" y="649"/>
      <point x="850" y="642" type="curve" smooth="yes"/>
      <point x="675" y="68" type="line" smooth="yes"/>
      <point x="672" y="61"/>
      <point x="612" y="58"/>
      <point x="565" y="58" type="curve" smooth="yes"/>
      <point x="554" y="58" type="line"/>
    </contour>
  </outline>
</glyph>
<glyph name="Ldot" format="2">
  <advance width="812"/>
  <unicode hex="013F"/>
  <outline>
    <contour>
      <point x="532" y="710" type="line"/>
      <point x="185" y="710" type="line"/>
      <point x="167" y="652" type="line"/>
      <point x="180" y="652" type="line" smooth="yes"/>
      <point x="240" y="652"/>
      <point x="282" y="645"/>
      <point x="273" y="616" type="curve" smooth="yes"/>
      <point x="113" y="94" type="line" smooth="yes"/>
      <point x="104" y="65"/>
      <point x="58" y="58"/>
      <point x="-2" y="58" type="curve" smooth="yes"/>
      <point x="-16" y="58" type="line"/>
      <point x="-34" y="0" type="line"/>
      <point x="648" y="0" type="line"/>
      <point x="713" y="221" type="line"/>
      <point x="638" y="221" type="line"/>
      <point x="585" y="101" type="line" smooth="yes"/>
      <point x="569" y="65"/>
      <point x="523" y="56"/>
      <point x="418" y="56" type="curve" smooth="yes"/>
      <point x="199" y="56" type="line"/>
      <point x="371" y="616" type="line" smooth="yes"/>
      <point x="379" y="645"/>
      <point x="427" y="652"/>
      <point x="493" y="652" type="curve" smooth="yes"/>
      <point x="514" y="652" type="line"/>
    </contour>
    <component base="periodcentered" xOffset="477" yOffset="111"/>
  </outline>
</glyph>
<glyph name="Eng" format="2">
  <advance width="1019"/>
  <unicode hex="014A"/>
  <outline>
    <contour>
      <point x="417" y="-250" type="curve" smooth="yes"/>
      <point x="346" y="-250"/>
      <point x="288" y="-237"/>
      <point x="253" y="-225" type="curve"/>
      <point x="274" y="-162" type="line"/>
      <point x="306" y="-174"/>
      <point x="359" y="-190"/>
      <point x="427" y="-190" type="curve" smooth="yes"/>
      <point x="545" y="-190"/>
      <point x="601" y="-156"/>
      <point x="645" y="-7" type="curve" smooth="yes"/>
      <point x="663" y="57" type="line"/>
      <point x="658" y="0" type="line"/>
      <point x="350" y="672" type="line"/>
      <point x="366" y="673" type="line"/>
      <point x="181" y="68" type="line" smooth="yes"/>
      <point x="179" y="61"/>
      <point x="239" y="58"/>
      <point x="279" y="58" type="curve" smooth="yes"/>
      <point x="296" y="58" type="line"/>
      <point x="278" y="0" type="line"/>
      <point x="-34" y="0" type="line"/>
      <point x="-16" y="58" type="line"/>
      <point x="-2" y="58" type="line" smooth="yes"/>
      <point x="58" y="58"/>
      <point x="104" y="65"/>
      <point x="113" y="94" type="curve" smooth="yes"/>
      <point x="273" y="616" type="line" smooth="yes"/>
      <point x="282" y="645"/>
      <point x="240" y="652"/>
      <point x="180" y="652" type="curve" smooth="yes"/>
      <point x="167" y="652" type="line"/>
      <point x="185" y="710" type="line"/>
      <point x="434" y="710" type="line"/>
      <point x="722" y="80" type="line"/>
      <point x="673" y="76" type="line"/>
      <point x="846" y="642" type="line" smooth="yes"/>
      <point x="849" y="649"/>
      <point x="789" y="652"/>
      <point x="749" y="652" type="curve" smooth="yes"/>
      <point x="732" y="652" type="line"/>
      <point x="750" y="710" type="line"/>
      <point x="1061" y="710" type="line"/>
      <point x="1044" y="652" type="line"/>
      <point x="1030" y="652" type="line" smooth="yes"/>
      <point x="970" y="652"/>
      <point x="923" y="645"/>
      <point x="915" y="616" type="curve" smooth="yes"/>
      <point x="716" y="-29" type="line" smooth="yes"/>
      <point x="663" y="-204"/>
      <point x="572" y="-250"/>
    </contour>
  </outline>
</glyph>
<glyph name="Uogonek" format="2">
  <advance width="983"/>
  <unicode hex="0172"/>
  <outline>
    <contour>
      <point x="436" y="-252" type="curve" smooth="yes"/>
      <point x="511" y="-252"/>
      <point x="559" y="-226"/>
      <point x="607" y="-191" type="curve"/>
      <point x="574" y="-156" type="line"/>
      <point x="546" y="-174"/>
      <point x="512" y="-200"/>
      <point x="461" y="-200" type="curve" smooth="yes"/>
      <point x="416" y="-200"/>
      <point x="394" y="-183"/>
      <point x="394" y="-157" type="curve" smooth="yes"/>
      <point x="394" y="-72"/>
      <point x="558" y="-38"/>
      <point x="661" y="45" type="curve" smooth="yes"/>
      <point x="715" y="88"/>
      <point x="756" y="153"/>
      <point x="784" y="246" type="curve" smooth="yes"/>
      <point x="894" y="607" type="line" smooth="yes"/>
      <point x="904" y="641"/>
      <point x="952" y="652"/>
      <point x="1011" y="652" type="curve" smooth="yes"/>
      <point x="1025" y="652" type="line"/>
      <point x="1043" y="710" type="line"/>
      <point x="733" y="710" type="line"/>
      <point x="715" y="652" type="line"/>
      <point x="726" y="652" type="line" smooth="yes"/>
      <point x="773" y="652"/>
      <point x="831" y="645"/>
      <point x="828" y="633" type="curve" smooth="yes"/>
      <point x="711" y="251" type="line" smooth="yes"/>
      <point x="663" y="96"/>
      <point x="589" y="41"/>
      <point x="444" y="41" type="curve" smooth="yes"/>
      <point x="306" y="41"/>
      <point x="235" y="96"/>
      <point x="235" y="191" type="curve" smooth="yes"/>
      <point x="235" y="233"/>
      <point x="241" y="265"/>
      <point x="267" y="350" type="curve" smooth="yes"/>
      <point x="356" y="642" type="line" smooth="yes"/>
      <point x="358" y="649"/>
      <point x="419" y="652"/>
      <point x="465" y="652" type="curve" smooth="yes"/>
      <point x="476" y="652" type="line"/>
      <point x="494" y="710" type="line"/>
      <point x="161" y="710" type="line"/>
      <point x="144" y="652" type="line"/>
      <point x="157" y="652" type="line" smooth="yes"/>
      <point x="217" y="652"/>
      <point x="259" y="645"/>
      <point x="250" y="616" type="curve" smooth="yes"/>
      <point x="172" y="358" type="line" smooth="yes"/>
      <point x="145" y="268"/>
      <point x="137" y="226"/>
      <point x="137" y="187" type="curve" smooth="yes"/>
      <point x="137" y="52"/>
      <point x="248" y="-25"/>
      <point x="438" y="-25" type="curve" smooth="yes"/>
      <point x="477" y="-25"/>
      <point x="513" y="-21"/>
      <point x="545" y="-11" type="curve"/>
      <point x="618" y="38" type="line"/>
      <point x="326" y="-75"/>
      <point x="289" y="-109"/>
      <point x="289" y="-167" type="curve" smooth="yes"/>
      <point x="289" y="-221"/>
      <point x="341" y="-252"/>
    </contour>
  </outline>
</glyph>
<glyph name="Uhorn" format="2">
  <advance width="1091"/>
  <unicode hex="01AF"/>
  <anchor x="577" y="663" name="top"/>
  <outline>
    <contour>
      <point x="438" y="-25" type="curve" smooth="yes"/>
      <point x="603" y="-25"/>
      <point x="724" y="48"/>
      <point x="784" y="246" type="curve" smooth="yes"/>
      <point x="894" y="607" type="line" smooth="yes"/>
      <point x="904" y="638"/>
      <point x="938" y="646"/>
      <point x="979" y="651" type="curve" smooth="yes"/>
      <point x="1087" y="664"/>
      <point x="1196" y="693"/>
      <point x="1259" y="899" type="curve"/>
      <point x="1165" y="899" type="line"/>
      <point x="1122" y="775"/>
      <point x="1103" y="710"/>
      <point x="938" y="710" type="curve" smooth="yes"/>
      <point x="733" y="710" type="line"/>
      <point x="715" y="652" type="line"/>
      <point x="726" y="652" type="line" smooth="yes"/>
      <point x="773" y="652"/>
      <point x="831" y="645"/>
      <point x="828" y="633" type="curve" smooth="yes"/>
      <point x="711" y="251" type="line" smooth="yes"/>
      <point x="663" y="96"/>
      <point x="589" y="41"/>
      <point x="444" y="41" type="curve" smooth="yes"/>
      <point x="306" y="41"/>
      <point x="235" y="96"/>
      <point x="235" y="191" type="curve" smooth="yes"/>
      <point x="235" y="233"/>
      <point x="241" y="265"/>
      <point x="267" y="350" type="curve" smooth="yes"/>
      <point x="356" y="642" type="line" smooth="yes"/>
      <point x="358" y="649"/>
      <point x="419" y="652"/>
      <point x="465" y="652" type="curve" smooth="yes"/>
      <point x="476" y="652" type="line"/>
      <point x="494" y="710" type="line"/>
      <point x="161" y="710" type="line"/>
      <point x="144" y="652" type="line"/>
      <point x="157" y="652" type="line" smooth="yes"/>
      <point x="217" y="652"/>
      <point x="259" y="645"/>
      <point x="250" y="616" type="curve" smooth="yes"/>
      <point x="172" y="358" type="line" smooth="yes"/>
      <point x="145" y="268"/>
      <point x="137" y="226"/>
      <point x="137" y="187" type="curve" smooth="yes"/>
      <point x="137" y="52"/>
      <point x="248" y="-25"/>
    </contour>
  </outline>
</glyph>
<glyph name="Oogonek" format="2">
  <advance width="988"/>
  <unicode hex="01EA"/>
  <outline>
    <contour>
      <point x="439" y="33" type="curve" smooth="yes"/>
      <point x="259" y="33"/>
      <point x="172" y="116"/>
      <point x="172" y="256" type="curve" smooth="yes"/>
      <point x="172" y="308"/>
      <point x="179" y="366"/>
      <point x="203" y="424" type="curve" smooth="yes"/>
      <point x="262" y="590"/>
      <point x="381" y="677"/>
      <point x="561" y="677" type="curve" smooth="yes"/>
      <point x="741" y="677"/>
      <point x="828" y="594"/>
      <point x="828" y="454" type="curve" smooth="yes"/>
      <point x="828" y="402"/>
      <point x="820" y="344"/>
      <point x="797" y="286" type="curve" smooth="yes"/>
      <point x="738" y="120"/>
      <point x="619" y="33"/>
    </contour>
    <contour>
      <point x="461" y="-252" type="curve" smooth="yes"/>
      <point x="536" y="-252"/>
      <point x="585" y="-226"/>
      <point x="632" y="-191" type="curve"/>
      <point x="599" y="-156" type="line"/>
      <point x="571" y="-174"/>
      <point x="536" y="-200"/>
      <point x="486" y="-200" type="curve" smooth="yes"/>
      <point x="441" y="-200"/>
      <point x="419" y="-183"/>
      <point x="419" y="-157" type="curve" smooth="yes"/>
      <point x="419" y="-79"/>
      <point x="616" y="-30"/>
      <point x="753" y="74" type="curve" smooth="yes"/>
      <point x="876" y="167"/>
      <point x="933" y="313"/>
      <point x="933" y="438" type="curve" smooth="yes"/>
      <point x="933" y="609"/>
      <point x="809" y="735"/>
      <point x="565" y="735" type="curve" smooth="yes"/>
      <point x="217" y="735"/>
      <point x="67" y="476"/>
      <point x="67" y="272" type="curve" smooth="yes"/>
      <point x="67" y="101"/>
      <point x="191" y="-25"/>
      <point x="435" y="-25" type="curve" smooth="yes"/>
      <point x="480" y="-25"/>
      <point x="524" y="-20"/>
      <point x="563" y="-5" type="curve"/>
      <point x="646" y="35" type="line"/>
      <point x="361" y="-75"/>
      <point x="314" y="-103"/>
      <point x="314" y="-169" type="curve" smooth="yes"/>
      <point x="314" y="-222"/>
      <point x="366" y="-252"/>
    </contour>
  </outline>
</glyph>
<glyph name="schwa" format="2">
  <advance width="707"/>
  <unicode hex="0259"/>
  <outline>
    <contour>
      <point x="403" y="575" type="curve" smooth="yes"/>
      <point x="268" y="575"/>
      <point x="171" y="522"/>
      <point x="105" y="449" type="curve"/>
      <point x="165" y="415" type="line"/>
      <point x="216" y="469"/>
      <point x="290" y="517"/>
      <point x="396" y="517" type="curve" smooth="yes"/>
      <point x="500" y="517"/>
      <point x="555" y="476"/>
      <point x="555" y="380" type="curve" smooth="yes"/>
      <point x="555" y="225"/>
      <point x="448" y="46"/>
      <point x="254" y="46" type="curve" smooth="yes"/>
      <point x="174" y="46"/>
      <point x="132" y="71"/>
      <point x="132" y="122" type="curve" smooth="yes"/>
      <point x="132" y="203"/>
      <point x="200" y="282"/>
      <point x="560" y="292" type="curve"/>
      <point x="569" y="339" type="line"/>
      <point x="167" y="332"/>
      <point x="40" y="232"/>
      <point x="40" y="119" type="curve" smooth="yes"/>
      <point x="40" y="42"/>
      <point x="104" y="-13"/>
      <point x="245" y="-13" type="curve" smooth="yes"/>
      <point x="485" y="-13"/>
      <point x="650" y="182"/>
      <point x="650" y="380" type="curve" smooth="yes"/>
      <point x="650" y="499"/>
      <point x="569" y="575"/>
    </contour>
  </outline>
</glyph>
<glyph name="circumflex" format="2">
  <advance width="613"/>
  <unicode hex="02C6"/>
  <anchor x="297" y="529" name="_top"/>
  <outline>
    <contour>
      <point x="376" y="844" type="line"/>
      <point x="482" y="676" type="line"/>
      <point x="475" y="656" type="line"/>
      <point x="434" y="656" type="line"/>
      <point x="277" y="802" type="line"/>
      <point x="347" y="784" type="line"/>
      <point x="136" y="656" type="line"/>
      <point x="89" y="656" type="line"/>
      <point x="95" y="676" type="line"/>
      <point x="297" y="844" type="line"/>
    </contour>
  </outline>
</glyph>
<glyph name="dotaccent" format="2">
  <advance width="613"/>
  <unicode hex="02D9"/>
  <anchor x="306" y="526" name="_top"/>
  <outline>
    <contour>
      <point x="306" y="680" type="curve" smooth="yes"/>
      <point x="259" y="680"/>
      <point x="227" y="698"/>
      <point x="227" y="744" type="curve" smooth="yes"/>
      <point x="227" y="787"/>
      <point x="259" y="806"/>
      <point x="306" y="806" type="curve" smooth="yes"/>
      <point x="352" y="806"/>
      <point x="386" y="787"/>
      <point x="386" y="744" type="curve" smooth="yes"/>
      <point x="386" y="698"/>
      <point x="352" y="680"/>
    </contour>
  </outline>
</glyph>
<glyph name="dagger" format="2">
  <advance width="667"/>
  <unicode hex="2020"/>
  <outline>
    <contour>
      <point x="343" y="481" type="line"/>
      <point x="379" y="481" type="line"/>
      <point x="589" y="430" type="line"/>
      <point x="626" y="430" type="line"/>
      <point x="659" y="538" type="line"/>
      <point x="622" y="538" type="line"/>
      <point x="387" y="508" type="line"/>
      <point x="351" y="508" type="line"/>
      <point x="136" y="538" type="line"/>
      <point x="99" y="538" type="line"/>
      <point x="65" y="430" type="line"/>
      <point x="102" y="430" type="line"/>
    </contour>
    <contour>
      <point x="498" y="710" type="line"/>
      <point x="364" y="710" type="line"/>
      <point x="350" y="664" type="line" smooth="yes"/>
      <point x="335" y="615"/>
      <point x="364" y="589"/>
      <point x="336" y="499" type="curve" smooth="yes"/>
      <point x="306" y="403"/>
      <point x="279" y="373"/>
      <point x="249" y="346" type="curve"/>
      <point x="240" y="316" type="line" smooth="yes"/>
      <point x="227" y="275"/>
      <point x="244" y="212"/>
      <point x="176" y="-20" type="curve"/>
      <point x="240" y="-20" type="line"/>
      <point x="314" y="212"/>
      <point x="369" y="273"/>
      <point x="382" y="314" type="curve" smooth="yes"/>
      <point x="391" y="344" type="line"/>
      <point x="377" y="371"/>
      <point x="367" y="403"/>
      <point x="397" y="499" type="curve" smooth="yes"/>
      <point x="425" y="588"/>
      <point x="468" y="614"/>
      <point x="483" y="663" type="curve" smooth="yes"/>
    </contour>
  </outline>
</glyph>
<glyph name="franc" format="2">
  <advance width="685"/>
  <unicode hex="20A3"/>
  <outline>
    <contour>
      <point x="-45" y="0" type="line"/>
      <point x="296" y="0" type="line"/>
      <point x="315" y="58" type="line"/>
      <point x="290" y="58" type="line" smooth="yes"/>
      <point x="232" y="58"/>
      <point x="174" y="61"/>
      <point x="176" y="68" type="curve" smooth="yes"/>
      <point x="355" y="654" type="line"/>
      <point x="508" y="654" type="line" smooth="yes"/>
      <point x="613" y="654"/>
      <point x="650" y="645"/>
      <point x="648" y="609" type="curve" smooth="yes"/>
      <point x="640" y="534" type="line"/>
      <point x="710" y="534" type="line"/>
      <point x="764" y="710" type="line"/>
      <point x="172" y="710" type="line"/>
      <point x="155" y="652" type="line"/>
      <point x="168" y="652" type="line" smooth="yes"/>
      <point x="228" y="652"/>
      <point x="258" y="645"/>
      <point x="249" y="616" type="curve" smooth="yes"/>
      <point x="90" y="94" type="line" smooth="yes"/>
      <point x="81" y="65"/>
      <point x="46" y="58"/>
      <point x="-14" y="58" type="curve" smooth="yes"/>
      <point x="-27" y="58" type="line"/>
    </contour>
    <contour>
      <point x="267" y="429" type="curve"/>
      <point x="251" y="379" type="line"/>
      <point x="352" y="374"/>
      <point x="454" y="369"/>
      <point x="555" y="365" type="curve"/>
      <point x="579" y="443" type="line"/>
      <point x="475" y="438"/>
      <point x="371" y="434"/>
    </contour>
    <contour>
      <point x="32" y="257" type="line"/>
      <point x="17" y="206" type="line"/>
      <point x="439" y="206" type="line"/>
      <point x="455" y="257" type="line"/>
    </contour>
  </outline>
</glyph>
<glyph name="naira" format="2">
  <advance width="686"/>
  <unicode hex="20A6"/>
  <outline>
    <contour>
      <point x="-54" y="0" type="line"/>
      <point x="182" y="0" type="line"/>
      <point x="199" y="56" type="line"/>
      <point x="182" y="56" type="line" smooth="yes"/>
      <point x="144" y="56"/>
      <point x="120" y="62"/>
      <point x="122" y="69" type="curve" smooth="yes"/>
      <point x="314" y="697" type="line"/>
      <point x="309" y="698" type="line"/>
      <point x="347" y="0" type="line"/>
      <point x="449" y="0" type="line"/>
      <point x="636" y="613" type="line" smooth="yes"/>
      <point x="645" y="642"/>
      <point x="680" y="654"/>
      <point x="720" y="654" type="curve" smooth="yes"/>
      <point x="744" y="654" type="line"/>
      <point x="762" y="710" type="line"/>
      <point x="530" y="710" type="line"/>
      <point x="512" y="654" type="line"/>
      <point x="530" y="654" type="line" smooth="yes"/>
      <point x="567" y="654"/>
      <point x="588" y="648"/>
      <point x="585" y="641" type="curve" smooth="yes"/>
      <point x="400" y="35" type="line"/>
      <point x="409" y="18" type="line"/>
      <point x="374" y="710" type="line"/>
      <point x="164" y="710" type="line"/>
      <point x="146" y="654" type="line"/>
      <point x="171" y="654" type="line" smooth="yes"/>
      <point x="211" y="654"/>
      <point x="240" y="647"/>
      <point x="231" y="618" type="curve" smooth="yes"/>
      <point x="72" y="97" type="line" smooth="yes"/>
      <point x="63" y="68"/>
      <point x="29" y="56"/>
      <point x="-12" y="56" type="curve" smooth="yes"/>
      <point x="-36" y="56" type="line"/>
    </contour>
    <contour>
      <point x="221" y="492" type="line"/>
      <point x="64" y="492" type="line"/>
      <point x="47" y="433" type="line"/>
      <point x="201" y="433" type="line"/>
    </contour>
    <contour>
      <point x="359" y="467" type="line"/>
      <point x="547" y="444" type="line"/>
      <point x="555" y="433" type="line"/>
      <point x="710" y="433" type="line"/>
      <point x="727" y="492" type="line"/>
      <point x="369" y="492" type="line"/>
    </contour>
    <contour>
      <point x="480" y="216" type="line"/>
      <point x="643" y="216" type="line"/>
      <point x="660" y="275" type="line"/>
      <point x="500" y="275" type="line"/>
    </contour>
    <contour>
      <point x="359" y="241" type="line"/>
      <point x="155" y="263" type="line"/>
      <point x="158" y="275" type="line"/>
      <point x="-2" y="275" type="line"/>
      <point x="-20" y="216" type="line"/>
      <point x="352" y="216" type="line"/>
    </contour>
  </outline>
</glyph>
<glyph name="peseta" format="2">
  <advance width="686"/>
  <unicode hex="20A7"/>
  <outline>
    <contour>
      <point x="-83" y="0" type="line"/>
      <point x="128" y="0" type="line"/>
      <point x="144" y="56" type="line"/>
      <point x="130" y="56" type="line" smooth="yes"/>
      <point x="108" y="56"/>
      <point x="73" y="59"/>
      <point x="75" y="66" type="curve" smooth="yes"/>
      <point x="132" y="251" type="line"/>
      <point x="196" y="251" type="line" smooth="yes"/>
      <point x="381" y="251"/>
      <point x="474" y="406"/>
      <point x="474" y="554" type="curve" smooth="yes"/>
      <point x="474" y="644"/>
      <point x="420" y="710"/>
      <point x="272" y="710" type="curve" smooth="yes"/>
      <point x="134" y="710" type="line"/>
      <point x="118" y="654" type="line"/>
      <point x="124" y="654" type="line" smooth="yes"/>
      <point x="151" y="654"/>
      <point x="167" y="647"/>
      <point x="158" y="618" type="curve" smooth="yes"/>
      <point x="-4" y="92" type="line" smooth="yes"/>
      <point x="-12" y="63"/>
      <point x="-33" y="56"/>
      <point x="-60" y="56" type="curve" smooth="yes"/>
      <point x="-66" y="56" type="line"/>
    </contour>
    <contour>
      <point x="274" y="654" type="line" smooth="yes"/>
      <point x="357" y="654"/>
      <point x="391" y="619"/>
      <point x="391" y="560" type="curve" smooth="yes"/>
      <point x="391" y="531"/>
      <point x="385" y="500"/>
      <point x="375" y="466" type="curve" smooth="yes"/>
      <point x="341" y="354"/>
      <point x="300" y="307"/>
      <point x="195" y="307" type="curve" smooth="yes"/>
      <point x="148" y="307" type="line"/>
      <point x="255" y="654" type="line"/>
    </contour>
    <contour>
      <point x="554" y="539" type="line"/>
      <point x="423" y="108" type="line" smooth="yes"/>
      <point x="414" y="83"/>
      <point x="411" y="69"/>
      <point x="411" y="54" type="curve"/>
      <point x="411" y="16"/>
      <point x="440" y="0"/>
      <point x="502" y="0" type="curve" smooth="yes"/>
      <point x="536" y="0"/>
      <point x="566" y="0"/>
      <point x="589" y="0" type="curve"/>
      <point x="607" y="56" type="line"/>
      <point x="592" y="56"/>
      <point x="570" y="56"/>
      <point x="541" y="56" type="curve" smooth="yes"/>
      <point x="514" y="56"/>
      <point x="500" y="59"/>
      <point x="500" y="76" type="curve"/>
      <point x="500" y="85"/>
      <point x="502" y="93"/>
      <point x="506" y="107" type="curve" smooth="yes"/>
      <point x="691" y="710" type="line"/>
      <point x="624" y="710" type="line"/>
      <point x="596" y="617" type="line" smooth="yes"/>
      <point x="577" y="556"/>
      <point x="550" y="544"/>
      <point x="501" y="544" type="curve" smooth="yes"/>
      <point x="455" y="544" type="line"/>
      <point x="441" y="499" type="line"/>
      <point x="741" y="499" type="line"/>
      <point x="758" y="555" type="line"/>
      <point x="615" y="555" type="line"/>
    </contour>
  </outline>
</glyph>
<glyph name="uni20B4" format="2">
  <advance width="686"/>
  <unicode hex="20B4"/>
  <outline>
    <contour>
      <point x="-1" y="249" type="line"/>
      <point x="629" y="249" type="line"/>
      <point x="645" y="303" type="line"/>
      <point x="16" y="303" type="line"/>
    </contour>
    <contour>
      <point x="55" y="431" type="line"/>
      <point x="684" y="431" type="line"/>
      <point x="701" y="485" type="line"/>
      <point x="72" y="485" type="line"/>
    </contour>
    <contour>
      <point x="308" y="-10" type="curve" smooth="yes"/>
      <point x="418" y="-10"/>
      <point x="497" y="17"/>
      <point x="538" y="32" type="curve"/>
      <point x="573" y="158" type="line"/>
      <point x="466" y="158" type="line"/>
      <point x="432" y="41" type="line"/>
      <point x="475" y="48"/>
      <point x="508" y="79"/>
      <point x="501" y="85" type="curve"/>
      <point x="454" y="62"/>
      <point x="398" y="44"/>
      <point x="315" y="44" type="curve" smooth="yes"/>
      <point x="224" y="44"/>
      <point x="160" y="68"/>
      <point x="160" y="137" type="curve" smooth="yes"/>
      <point x="160" y="199"/>
      <point x="206" y="253"/>
      <point x="290" y="281" type="curve"/>
      <point x="165" y="288" type="line"/>
      <point x="102" y="255"/>
      <point x="64" y="204"/>
      <point x="64" y="138" type="curve" smooth="yes"/>
      <point x="64" y="37"/>
      <point x="162" y="-10"/>
    </contour>
    <contour>
      <point x="532" y="446" type="line"/>
      <point x="605" y="481"/>
      <point x="655" y="541"/>
      <point x="655" y="604" type="curve" smooth="yes"/>
      <point x="655" y="687"/>
      <point x="581" y="730"/>
      <point x="434" y="730" type="curve" smooth="yes"/>
      <point x="335" y="730"/>
      <point x="258" y="704"/>
      <point x="216" y="685" type="curve"/>
      <point x="185" y="577" type="line"/>
      <point x="287" y="577" type="line"/>
      <point x="317" y="679" type="line"/>
      <point x="290" y="676"/>
      <point x="248" y="652"/>
      <point x="250" y="639" type="curve"/>
      <point x="290" y="658"/>
      <point x="345" y="677"/>
      <point x="424" y="677" type="curve" smooth="yes"/>
      <point x="517" y="677"/>
      <point x="563" y="654"/>
      <point x="563" y="604" type="curve" smooth="yes"/>
      <point x="563" y="549"/>
      <point x="519" y="503"/>
      <point x="439" y="468" type="curve"/>
    </contour>
  </outline>
</glyph>
<glyph name="manat" format="2">
  <advance width="686"/>
  <unicode hex="20BC"/>
  <outline>
    <contour>
      <point x="449" y="760" type="line"/>
      <point x="255" y="124" type="line"/>
      <point x="326" y="124" type="line"/>
      <point x="520" y="760" type="line"/>
    </contour>
    <contour>
      <point x="432" y="608" type="curve" smooth="yes"/>
      <point x="181" y="608"/>
      <point x="103" y="455"/>
      <point x="-48" y="0" type="curve"/>
      <point x="55" y="0" type="line"/>
      <point x="205" y="453"/>
      <point x="220" y="559"/>
      <point x="425" y="559" type="curve" smooth="yes"/>
      <point x="626" y="559"/>
      <point x="565" y="442"/>
      <point x="450" y="0" type="curve"/>
      <point x="553" y="0" type="line"/>
      <point x="680" y="455"/>
      <point x="672" y="608"/>
    </contour>
  </outline>
</glyph>
<glyph name="partialdiff" format="2">
  <advance width="694"/>
  <unicode hex="2202"/>
  <outline>
    <contour>
      <point x="292" y="-12" type="curve" smooth="yes"/>
      <point x="512" y="-12"/>
      <point x="624" y="183"/>
      <point x="624" y="457" type="curve" smooth="yes"/>
      <point x="624" y="681"/>
      <point x="522" y="748"/>
      <point x="369" y="748" type="curve" smooth="yes"/>
      <point x="312" y="748"/>
      <point x="245" y="733"/>
      <point x="190" y="704" type="curve"/>
      <point x="220" y="658" type="line"/>
      <point x="265" y="678"/>
      <point x="311" y="695"/>
      <point x="369" y="695" type="curve" smooth="yes"/>
      <point x="457" y="695"/>
      <point x="530" y="668"/>
      <point x="530" y="489" type="curve" smooth="yes"/>
      <point x="530" y="251"/>
      <point x="474" y="39"/>
      <point x="296" y="39" type="curve" smooth="yes"/>
      <point x="197" y="39"/>
      <point x="157" y="86"/>
      <point x="157" y="209" type="curve" smooth="yes"/>
      <point x="157" y="375"/>
      <point x="233" y="467"/>
      <point x="386" y="467" type="curve" smooth="yes"/>
      <point x="460" y="467"/>
      <point x="522" y="444"/>
      <point x="546" y="402" type="curve"/>
      <point x="565" y="455" type="line"/>
      <point x="545" y="482"/>
      <point x="498" y="518"/>
      <point x="391" y="518" type="curve" smooth="yes"/>
      <point x="190" y="518"/>
      <point x="60" y="385"/>
      <point x="60" y="197" type="curve" smooth="yes"/>
      <point x="60" y="74"/>
      <point x="134" y="-12"/>
    </contour>
  </outline>
</glyph>
<glyph name="summation" format="2">
  <advance width="708"/>
  <unicode hex="2211"/>
  <outline>
    <contour>
      <point x="-142" y="-223" type="line"/>
      <point x="-119" y="-147" type="line"/>
      <point x="344" y="279" type="line"/>
      <point x="336" y="238" type="line"/>
      <point x="119" y="634" type="line"/>
      <point x="142" y="710" type="line"/>
      <point x="738" y="710" type="line"/>
      <point x="678" y="504" type="line"/>
      <point x="608" y="504" type="line"/>
      <point x="621" y="604" type="line" smooth="yes"/>
      <point x="626" y="640"/>
      <point x="587" y="649"/>
      <point x="482" y="649" type="curve" smooth="yes"/>
      <point x="189" y="649" type="line"/>
      <point x="199" y="684" type="line"/>
      <point x="411" y="293" type="line"/>
      <point x="394" y="236" type="line"/>
      <point x="-72" y="-194" type="line"/>
      <point x="-62" y="-162" type="line"/>
      <point x="270" y="-162" type="line"/>
      <point x="375" y="-162"/>
      <point x="420" y="-153"/>
      <point x="437" y="-117" type="curve" smooth="yes"/>
      <point x="493" y="8" type="line"/>
      <point x="566" y="8" type="line"/>
      <point x="498" y="-223" type="line"/>
    </contour>
  </outline>
</glyph>
<glyph name="integral" format="2">
  <advance width="649"/>
  <unicode hex="222B"/>
  <outline>
    <contour>
      <point x="425" y="574" type="line" smooth="yes"/>
      <point x="446" y="659"/>
      <point x="471" y="683"/>
      <point x="563" y="683" type="curve" smooth="yes"/>
      <point x="606" y="683"/>
      <point x="651" y="677"/>
      <point x="679" y="664" type="curve"/>
      <point x="685" y="670"/>
      <point x="668" y="687"/>
      <point x="635" y="696" type="curve"/>
      <point x="610" y="582" type="line"/>
      <point x="697" y="582" type="line"/>
      <point x="726" y="711" type="line"/>
      <point x="696" y="723"/>
      <point x="635" y="737"/>
      <point x="566" y="737" type="curve" smooth="yes"/>
      <point x="425" y="737"/>
      <point x="363" y="692"/>
      <point x="333" y="575" type="curve" smooth="yes"/>
      <point x="163" y="-67" type="line" smooth="yes"/>
      <point x="140" y="-158"/>
      <point x="111" y="-182"/>
      <point x="27" y="-182" type="curve" smooth="yes"/>
      <point x="-19" y="-182"/>
      <point x="-63" y="-175"/>
      <point x="-84" y="-162" type="curve"/>
      <point x="-96" y="-168"/>
      <point x="-80" y="-186"/>
      <point x="-48" y="-195" type="curve"/>
      <point x="-23" y="-81" type="line"/>
      <point x="-110" y="-81" type="line"/>
      <point x="-138" y="-210" type="line"/>
      <point x="-109" y="-223"/>
      <point x="-44" y="-236"/>
      <point x="21" y="-236" type="curve" smooth="yes"/>
      <point x="147" y="-236"/>
      <point x="222" y="-198"/>
      <point x="256" y="-68" type="curve" smooth="yes"/>
    </contour>
  </outline>
</glyph>
<glyph name="approxequal" format="2">
  <advance width="686"/>
  <unicode hex="2248"/>
  <outline>
    <contour>
      <point x="428" y="150" type="curve" smooth="yes"/>
      <point x="338" y="150"/>
      <point x="341" y="269"/>
      <point x="203" y="269" type="curve" smooth="yes"/>
      <point x="101" y="269"/>
      <point x="46" y="209"/>
      <point x="2" y="101" type="curve"/>
      <point x="66" y="84" type="line"/>
      <point x="92" y="149"/>
      <point x="126" y="208"/>
      <point x="190" y="208" type="curve" smooth="yes"/>
      <point x="277" y="208"/>
      <point x="284" y="88"/>
      <point x="417" y="88" type="curve" smooth="yes"/>
      <point x="516" y="88"/>
      <point x="574" y="151"/>
      <point x="618" y="257" type="curve"/>
      <point x="554" y="273" type="line"/>
      <point x="528" y="210"/>
      <point x="493" y="150"/>
    </contour>
    <contour>
      <point x="500" y="402" type="curve" smooth="yes"/>
      <point x="411" y="402"/>
      <point x="413" y="521"/>
      <point x="275" y="521" type="curve" smooth="yes"/>
      <point x="174" y="521"/>
      <point x="118" y="461"/>
      <point x="73" y="353" type="curve"/>
      <point x="138" y="336" type="line"/>
      <point x="164" y="401"/>
      <point x="198" y="460"/>
      <point x="262" y="460" type="curve" smooth="yes"/>
      <point x="350" y="460"/>
      <point x="356" y="341"/>
      <point x="489" y="341" type="curve" smooth="yes"/>
      <point x="589" y="341"/>
      <point x="646" y="403"/>
      <point x="690" y="509" type="curve"/>
      <point x="627" y="525" type="line"/>
      <point x="600" y="462"/>
      <point x="565" y="402"/>
    </contour>
  </outline>
</glyph>
<glyph name="zero.den" format="2">
  <advance width="600"/>
  <unicode hex="E402"/>
  <outline>
    <contour>
      <point x="390" y="192" type="curve" smooth="yes"/>
      <point x="354" y="73"/>
      <point x="310" y="39"/>
      <point x="249" y="39" type="curve" smooth="yes"/>
      <point x="196" y="39"/>
      <point x="165" y="64"/>
      <point x="165" y="121" type="curve" smooth="yes"/>
      <point x="165" y="147"/>
      <point x="171" y="181"/>
      <point x="184" y="223" type="curve" smooth="yes"/>
      <point x="220" y="342"/>
      <point x="265" y="376"/>
      <point x="325" y="376" type="curve" smooth="yes"/>
      <point x="378" y="376"/>
      <point x="410" y="351"/>
      <point x="410" y="294" type="curve" smooth="yes"/>
      <point x="410" y="268"/>
      <point x="403" y="234"/>
    </contour>
    <contour>
      <point x="501" y="267" type="curve" smooth="yes"/>
      <point x="501" y="365"/>
      <point x="432" y="421"/>
      <point x="327" y="421" type="curve"/>
      <point x="155" y="421"/>
      <point x="73" y="270"/>
      <point x="73" y="148" type="curve" smooth="yes"/>
      <point x="73" y="50"/>
      <point x="142" y="-6"/>
      <point x="248" y="-6" type="curve"/>
      <point x="420" y="-6"/>
      <point x="501" y="145"/>
    </contour>
  </outline>
</glyph>
<glyph name="three.den" format="2">
  <advance width="592"/>
  <unicode hex="E405"/>
  <outline>
    <contour>
      <point x="307" y="378" type="curve" smooth="yes"/>
      <point x="256" y="378"/>
      <point x="210" y="367"/>
      <point x="185" y="358" type="curve"/>
      <point x="201" y="371"/>
      <point x="207" y="377"/>
      <point x="235" y="383" type="curve"/>
      <point x="208" y="295" type="line"/>
      <point x="126" y="295" type="line"/>
      <point x="157" y="395" type="line"/>
      <point x="182" y="404"/>
      <point x="243" y="420"/>
      <point x="314" y="420" type="curve" smooth="yes"/>
      <point x="427" y="420"/>
      <point x="491" y="386"/>
      <point x="491" y="324" type="curve" smooth="yes"/>
      <point x="491" y="237"/>
      <point x="403" y="215"/>
      <point x="271" y="215" type="curve"/>
      <point x="267" y="219" type="line"/>
      <point x="412" y="215"/>
      <point x="468" y="180"/>
      <point x="468" y="119" type="curve" smooth="yes"/>
      <point x="468" y="39"/>
      <point x="387" y="-6"/>
      <point x="253" y="-6" type="curve" smooth="yes"/>
      <point x="108" y="-6"/>
      <point x="55" y="56"/>
      <point x="31" y="116" type="curve"/>
      <point x="94" y="134" type="line"/>
      <point x="107" y="104"/>
      <point x="141" y="37"/>
      <point x="254" y="37" type="curve" smooth="yes"/>
      <point x="340" y="37"/>
      <point x="369" y="70"/>
      <point x="369" y="132" type="curve" smooth="yes"/>
      <point x="369" y="171"/>
      <point x="338" y="196"/>
      <point x="259" y="196" type="curve" smooth="yes"/>
      <point x="187" y="196" type="line"/>
      <point x="200" y="237" type="line"/>
      <point x="282" y="237" type="line" smooth="yes"/>
      <point x="367" y="237"/>
      <point x="396" y="268"/>
      <point x="396" y="321" type="curve" smooth="yes"/>
      <point x="396" y="364"/>
      <point x="374" y="378"/>
    </contour>
  </outline>
</glyph>
<glyph name="AE.alt" format="2">
  <advance width="1349"/>
  <outline>
    <contour>
      <point x="310" y="292" type="line"/>
      <point x="271" y="237" type="line"/>
      <point x="724" y="237" type="line"/>
      <point x="718" y="292" type="line"/>
    </contour>
    <contour>
      <point x="-70" y="0" type="line"/>
      <point x="240" y="0" type="line"/>
      <point x="258" y="58" type="line"/>
      <point x="246" y="58" type="line" smooth="yes"/>
      <point x="177" y="58"/>
      <point x="138" y="68"/>
      <point x="143" y="81" type="curve"/>
      <point x="761" y="659" type="line"/>
      <point x="798" y="659" type="line"/>
      <point x="625" y="94" type="line"/>
      <point x="617" y="65"/>
      <point x="570" y="58"/>
      <point x="510" y="58" type="curve" smooth="yes"/>
      <point x="497" y="58" type="line"/>
      <point x="479" y="0" type="line"/>
      <point x="1182" y="0" type="line"/>
      <point x="1245" y="211" type="line"/>
      <point x="1171" y="211" type="line"/>
      <point x="1121" y="101" type="line" smooth="yes"/>
      <point x="1105" y="65"/>
      <point x="1059" y="56"/>
      <point x="954" y="56" type="curve" smooth="yes"/>
      <point x="711" y="56" type="line"/>
      <point x="894" y="654" type="line"/>
      <point x="1097" y="654" type="line" smooth="yes"/>
      <point x="1202" y="654"/>
      <point x="1241" y="645"/>
      <point x="1238" y="609" type="curve" smooth="yes"/>
      <point x="1230" y="524" type="line"/>
      <point x="1301" y="524" type="line"/>
      <point x="1353" y="710" type="line"/>
      <point x="537" y="710" type="line"/>
      <point x="519" y="652" type="line"/>
      <point x="532" y="652" type="line" smooth="yes"/>
      <point x="592" y="652"/>
      <point x="634" y="645"/>
      <point x="625" y="616" type="curve"/>
      <point x="94" y="122" type="line" smooth="yes"/>
      <point x="44" y="75"/>
      <point x="5" y="58"/>
      <point x="-45" y="58" type="curve" smooth="yes"/>
      <point x="-52" y="58" type="line"/>
    </contour>
    <contour>
      <point x="794" y="389" type="line"/>
      <point x="777" y="336" type="line"/>
      <point x="982" y="336" type="line" smooth="yes"/>
      <point x="1018" y="336"/>
      <point x="1023" y="311"/>
      <point x="1013" y="277" type="curve" smooth="yes"/>
      <point x="1007" y="257" type="line"/>
      <point x="1080" y="257" type="line"/>
      <point x="1145" y="469" type="line"/>
      <point x="1072" y="469" type="line"/>
      <point x="1066" y="450" type="line" smooth="yes"/>
      <point x="1055" y="415"/>
      <point x="1036" y="389"/>
      <point x="1001" y="389" type="curve" smooth="yes"/>
    </contour>
  </outline>
</glyph>
<glyph name="breve_tilde" format="2">
  <advance width="613"/>
  <anchor x="314" y="524" name="_top"/>
  <outline>
    <contour>
      <point x="427" y="884" type="curve" smooth="yes"/>
      <point x="489" y="884"/>
      <point x="525" y="909"/>
      <point x="569" y="1017" type="curve"/>
      <point x="514" y="1033" type="line"/>
      <point x="484" y="968"/>
      <point x="472" y="943"/>
      <point x="437" y="943" type="curve" smooth="yes"/>
      <point x="377" y="943"/>
      <point x="388" y="1028"/>
      <point x="280" y="1028" type="curve" smooth="yes"/>
      <point x="215" y="1028"/>
      <point x="172" y="999"/>
      <point x="129" y="899" type="curve"/>
      <point x="185" y="883" type="line"/>
      <point x="216" y="946"/>
      <point x="231" y="971"/>
      <point x="269" y="971" type="curve" smooth="yes"/>
      <point x="332" y="971"/>
      <point x="318" y="884"/>
    </contour>
    <contour>
      <point x="307" y="668" type="curve" smooth="yes"/>
      <point x="430" y="668"/>
      <point x="490" y="708"/>
      <point x="513" y="824" type="curve"/>
      <point x="444" y="824" type="line"/>
      <point x="421" y="752"/>
      <point x="400" y="735"/>
      <point x="311" y="735" type="curve" smooth="yes"/>
      <point x="210" y="735"/>
      <point x="205" y="765"/>
      <point x="209" y="824" type="curve"/>
      <point x="139" y="824" type="line"/>
      <point x="135" y="809"/>
      <point x="134" y="797"/>
      <point x="134" y="779" type="curve" smooth="yes"/>
      <point x="134" y="710"/>
      <point x="179" y="668"/>
    </contour>
  </outline>
</glyph>
<glyph name="colonmonetary.proportional" format="2">
  <advance width="836"/>
  <outline>
    <contour>
      <point x="389" y="10" type="curve" smooth="yes"/>
      <point x="588" y="10"/>
      <point x="680" y="108"/>
      <point x="752" y="240" type="curve"/>
      <point x="691" y="259" type="line"/>
      <point x="629" y="150"/>
      <point x="570" y="60"/>
      <point x="396" y="60" type="curve" smooth="yes"/>
      <point x="218" y="60"/>
      <point x="152" y="123"/>
      <point x="152" y="267" type="curve" smooth="yes"/>
      <point x="152" y="455"/>
      <point x="255" y="651"/>
      <point x="521" y="651" type="curve" smooth="yes"/>
      <point x="655" y="651"/>
      <point x="768" y="620"/>
      <point x="802" y="601" type="curve"/>
      <point x="803" y="621"/>
      <point x="776" y="637"/>
      <point x="757" y="644" type="curve"/>
      <point x="704" y="471" type="line"/>
      <point x="794" y="471" type="line"/>
      <point x="846" y="641" type="line"/>
      <point x="808" y="660"/>
      <point x="701" y="700"/>
      <point x="525" y="700" type="curve" smooth="yes"/>
      <point x="235" y="700"/>
      <point x="62" y="509"/>
      <point x="62" y="271" type="curve" smooth="yes"/>
      <point x="62" y="95"/>
      <point x="171" y="10"/>
    </contour>
    <contour>
      <point x="551" y="790" type="line"/>
      <point x="484" y="671" type="line"/>
      <point x="483" y="656" type="line"/>
      <point x="162" y="93" type="line"/>
      <point x="155" y="97" type="line"/>
      <point x="34" y="-120" type="line"/>
      <point x="106" y="-120" type="line"/>
      <point x="202" y="53" type="line"/>
      <point x="200" y="64" type="line"/>
      <point x="541" y="662" type="line"/>
      <point x="562" y="683" type="line"/>
      <point x="622" y="790" type="line"/>
    </contour>
    <contour>
      <point x="727" y="790" type="line"/>
      <point x="666" y="679" type="line"/>
      <point x="667" y="663" type="line"/>
      <point x="318" y="46" type="line"/>
      <point x="303" y="37" type="line"/>
      <point x="215" y="-120" type="line"/>
      <point x="287" y="-120" type="line"/>
      <point x="368" y="28" type="line"/>
      <point x="369" y="42" type="line"/>
      <point x="715" y="655" type="line"/>
      <point x="730" y="666" type="line"/>
      <point x="799" y="790" type="line"/>
    </contour>
  </outline>
</glyph>
<glyph name="dong.proportional" format="2">
  <advance width="831"/>
  <outline>
    <contour>
      <point x="261" y="-12" type="curve" smooth="yes"/>
      <point x="380" y="-12"/>
      <point x="482" y="70"/>
      <point x="568" y="180" type="curve"/>
      <point x="561" y="213" type="line"/>
      <point x="466" y="108"/>
      <point x="393" y="47"/>
      <point x="282" y="47" type="curve" smooth="yes"/>
      <point x="187" y="47"/>
      <point x="156" y="93"/>
      <point x="156" y="178" type="curve" smooth="yes"/>
      <point x="156" y="313"/>
      <point x="236" y="516"/>
      <point x="412" y="516" type="curve" smooth="yes"/>
      <point x="527" y="516"/>
      <point x="579" y="454"/>
      <point x="611" y="363" type="curve"/>
      <point x="637" y="391" type="line"/>
      <point x="607" y="496"/>
      <point x="542" y="576"/>
      <point x="408" y="576" type="curve" smooth="yes"/>
      <point x="176" y="576"/>
      <point x="56" y="344"/>
      <point x="56" y="178" type="curve" smooth="yes"/>
      <point x="56" y="66"/>
      <point x="113" y="-12"/>
    </contour>
    <contour>
      <point x="610" y="0" type="curve" smooth="yes"/>
      <point x="652" y="0"/>
      <point x="694" y="0"/>
      <point x="735" y="0" type="curve"/>
      <point x="748" y="57" type="line"/>
      <point x="708" y="57"/>
      <point x="669" y="57"/>
      <point x="629" y="57" type="curve" smooth="yes"/>
      <point x="611" y="57"/>
      <point x="604" y="62"/>
      <point x="604" y="73" type="curve" smooth="yes"/>
      <point x="604" y="86"/>
      <point x="619" y="131"/>
      <point x="655" y="248" type="curve" smooth="yes"/>
      <point x="817" y="780" type="line"/>
      <point x="724" y="780" type="line"/>
      <point x="539" y="176" type="line"/>
      <point x="539" y="164" type="line"/>
      <point x="533" y="112"/>
      <point x="529" y="64"/>
      <point x="529" y="53" type="curve" smooth="yes"/>
      <point x="529" y="17"/>
      <point x="558" y="0"/>
    </contour>
    <contour>
      <point x="32" y="-115" type="line"/>
      <point x="16" y="-171" type="line"/>
      <point x="667" y="-171" type="line"/>
      <point x="685" y="-115" type="line"/>
    </contour>
    <contour>
      <point x="415" y="706" type="line"/>
      <point x="399" y="653" type="line"/>
      <point x="888" y="653" type="line"/>
      <point x="903" y="706" type="line"/>
    </contour>
  </outline>
</glyph>
<glyph name="f_b" format="2">
  <advance width="1270"/>
  <outline>
    <contour>
      <point x="93" y="565" type="line"/>
      <point x="77" y="509" type="line"/>
      <point x="505" y="509" type="line"/>
      <point x="520" y="565" type="line"/>
    </contour>
    <contour>
      <point x="838" y="-13" type="curve" smooth="yes"/>
      <point x="1094" y="-13"/>
      <point x="1213" y="218"/>
      <point x="1213" y="385" type="curve" smooth="yes"/>
      <point x="1213" y="496"/>
      <point x="1158" y="575"/>
      <point x="1009" y="575" type="curve" smooth="yes"/>
      <point x="887" y="575"/>
      <point x="783" y="493"/>
      <point x="695" y="383" type="curve"/>
      <point x="704" y="349" type="line"/>
      <point x="800" y="455"/>
      <point x="874" y="516"/>
      <point x="987" y="516" type="curve" smooth="yes"/>
      <point x="1086" y="516"/>
      <point x="1113" y="467"/>
      <point x="1113" y="385" type="curve" smooth="yes"/>
      <point x="1113" y="250"/>
      <point x="1033" y="47"/>
      <point x="841" y="47" type="curve" smooth="yes"/>
      <point x="713" y="47"/>
      <point x="649" y="104"/>
      <point x="625" y="137" type="curve"/>
      <point x="617" y="127"/>
      <point x="623" y="100"/>
      <point x="634" y="83" type="curve"/>
      <point x="844" y="780" type="line"/>
      <point x="591" y="780" type="line"/>
      <point x="733" y="722" type="line"/>
      <point x="542" y="92" type="line"/>
      <point x="597" y="40"/>
      <point x="697" y="-13"/>
    </contour>
    <contour>
      <point x="512" y="731" type="curve" smooth="yes"/>
      <point x="608" y="731"/>
      <point x="687" y="714"/>
      <point x="740" y="698" type="curve"/>
      <point x="753" y="746" type="line"/>
      <point x="707" y="764"/>
      <point x="622" y="790"/>
      <point x="514" y="790" type="curve" smooth="yes"/>
      <point x="346" y="790"/>
      <point x="269" y="744"/>
      <point x="247" y="645" type="curve" smooth="yes"/>
      <point x="54" y="-223" type="line"/>
      <point x="132" y="-223" type="line"/>
      <point x="341" y="635" type="line" smooth="yes"/>
      <point x="358" y="706"/>
      <point x="393" y="731"/>
    </contour>
  </outline>
</glyph>
<glyph name="f_f_h" format="2">
  <advance width="1702"/>
  <outline>
    <contour>
      <point x="93" y="565" type="line"/>
      <point x="77" y="509" type="line"/>
      <point x="586" y="509" type="line"/>
      <point x="602" y="565" type="line"/>
    </contour>
    <contour>
      <point x="522" y="565" type="line"/>
      <point x="506" y="509" type="line"/>
      <point x="934" y="509" type="line"/>
      <point x="949" y="565" type="line"/>
    </contour>
    <contour>
      <point x="447" y="714" type="curve" smooth="yes"/>
      <point x="490" y="714"/>
      <point x="522" y="707"/>
      <point x="544" y="703" type="curve"/>
      <point x="560" y="765" type="line"/>
      <point x="541" y="769"/>
      <point x="499" y="775"/>
      <point x="453" y="775" type="curve" smooth="yes"/>
      <point x="325" y="775"/>
      <point x="266" y="731"/>
      <point x="244" y="630" type="curve" smooth="yes"/>
      <point x="54" y="-223" type="line"/>
      <point x="132" y="-223" type="line"/>
      <point x="338" y="620" type="line" smooth="yes"/>
      <point x="356" y="693"/>
      <point x="377" y="714"/>
    </contour>
    <contour>
      <point x="1037" y="0" type="line"/>
      <point x="1273" y="780" type="line"/>
      <point x="1013" y="780" type="line"/>
      <point x="1162" y="721" type="line"/>
      <point x="944" y="0" type="line"/>
    </contour>
    <contour>
      <point x="1426" y="223" type="line" smooth="yes"/>
      <point x="1390" y="117"/>
      <point x="1378" y="86"/>
      <point x="1378" y="57" type="curve" smooth="yes"/>
      <point x="1378" y="19"/>
      <point x="1415" y="0"/>
      <point x="1475" y="0" type="curve" smooth="yes"/>
      <point x="1519" y="0"/>
      <point x="1563" y="0"/>
      <point x="1607" y="0" type="curve"/>
      <point x="1620" y="57" type="line"/>
      <point x="1580" y="57"/>
      <point x="1540" y="57"/>
      <point x="1500" y="57" type="curve" smooth="yes"/>
      <point x="1483" y="57"/>
      <point x="1475" y="62"/>
      <point x="1475" y="74" type="curve" smooth="yes"/>
      <point x="1475" y="86"/>
      <point x="1485" y="121"/>
      <point x="1517" y="218" type="curve" smooth="yes"/>
      <point x="1575" y="388" type="line" smooth="yes"/>
      <point x="1589" y="430"/>
      <point x="1600" y="473"/>
      <point x="1600" y="502" type="curve" smooth="yes"/>
      <point x="1600" y="547"/>
      <point x="1559" y="575"/>
      <point x="1471" y="575" type="curve" smooth="yes"/>
      <point x="1336" y="575"/>
      <point x="1229" y="489"/>
      <point x="1120" y="371" type="curve"/>
      <point x="1130" y="339" type="line"/>
      <point x="1247" y="448"/>
      <point x="1335" y="512"/>
      <point x="1428" y="512" type="curve" smooth="yes"/>
      <point x="1481" y="512"/>
      <point x="1502" y="499"/>
      <point x="1502" y="474" type="curve" smooth="yes"/>
      <point x="1502" y="455"/>
      <point x="1495" y="430"/>
      <point x="1482" y="391" type="curve" smooth="yes"/>
    </contour>
    <contour>
      <point x="941" y="731" type="curve" smooth="yes"/>
      <point x="1037" y="731"/>
      <point x="1116" y="714"/>
      <point x="1168" y="698" type="curve"/>
      <point x="1182" y="746" type="line"/>
      <point x="1136" y="764"/>
      <point x="1051" y="790"/>
      <point x="943" y="790" type="curve" smooth="yes"/>
      <point x="775" y="790"/>
      <point x="698" y="744"/>
      <point x="676" y="645" type="curve" smooth="yes"/>
      <point x="483" y="-223" type="line"/>
      <point x="561" y="-223" type="line"/>
      <point x="770" y="635" type="line" smooth="yes"/>
      <point x="787" y="706"/>
      <point x="821" y="731"/>
    </contour>
  </outline>
</glyph>
<glyph name="f_f_i.alt" format="2">
  <advance width="1302"/>
  <outline>
    <contour>
      <point x="93" y="565" type="line"/>
      <point x="77" y="509" type="line"/>
      <point x="553" y="509" type="line"/>
      <point x="568" y="565" type="line"/>
    </contour>
    <contour>
      <point x="969" y="734" type="curve" smooth="yes"/>
      <point x="1056" y="734"/>
      <point x="1125" y="720"/>
      <point x="1164" y="708" type="curve"/>
      <point x="1161" y="721"/>
      <point x="1149" y="736"/>
      <point x="1112" y="738" type="curve"/>
      <point x="1088" y="651" type="line"/>
      <point x="1183" y="651" type="line"/>
      <point x="1213" y="759" type="line"/>
      <point x="1178" y="771"/>
      <point x="1088" y="790"/>
      <point x="981" y="790" type="curve" smooth="yes"/>
      <point x="781" y="790"/>
      <point x="698" y="742"/>
      <point x="675" y="642" type="curve" smooth="yes"/>
      <point x="483" y="-223" type="line"/>
      <point x="561" y="-223" type="line"/>
      <point x="769" y="632" type="line" smooth="yes"/>
      <point x="788" y="708"/>
      <point x="834" y="734"/>
    </contour>
    <contour>
      <point x="522" y="565" type="line"/>
      <point x="506" y="509" type="line"/>
      <point x="946" y="509" type="line" smooth="yes"/>
      <point x="1022" y="509"/>
      <point x="1091" y="489"/>
      <point x="1085" y="466" type="curve" smooth="yes"/>
      <point x="1012" y="223" type="line" smooth="yes"/>
      <point x="979" y="117"/>
      <point x="969" y="86"/>
      <point x="969" y="58" type="curve" smooth="yes"/>
      <point x="969" y="20"/>
      <point x="1006" y="0"/>
      <point x="1066" y="0" type="curve" smooth="yes"/>
      <point x="1110" y="0"/>
      <point x="1154" y="0"/>
      <point x="1197" y="0" type="curve"/>
      <point x="1209" y="57" type="line"/>
      <point x="1169" y="57"/>
      <point x="1130" y="57"/>
      <point x="1089" y="57" type="curve" smooth="yes"/>
      <point x="1072" y="57"/>
      <point x="1063" y="62"/>
      <point x="1063" y="74" type="curve" smooth="yes"/>
      <point x="1063" y="86"/>
      <point x="1072" y="121"/>
      <point x="1102" y="218" type="curve" smooth="yes"/>
      <point x="1206" y="565" type="line"/>
    </contour>
    <contour>
      <point x="527" y="719" type="curve" smooth="yes"/>
      <point x="640" y="719"/>
      <point x="714" y="695"/>
      <point x="751" y="670" type="curve"/>
      <point x="746" y="692"/>
      <point x="733" y="719"/>
      <point x="695" y="724" type="curve"/>
      <point x="674" y="635" type="line"/>
      <point x="760" y="636" type="line"/>
      <point x="789" y="722" type="line"/>
      <point x="758" y="741"/>
      <point x="667" y="775"/>
      <point x="532" y="775" type="curve" smooth="yes"/>
      <point x="345" y="775"/>
      <point x="266" y="728"/>
      <point x="243" y="627" type="curve" smooth="yes"/>
      <point x="54" y="-223" type="line"/>
      <point x="132" y="-223" type="line"/>
      <point x="337" y="618" type="line" smooth="yes"/>
      <point x="356" y="696"/>
      <point x="400" y="719"/>
    </contour>
  </outline>
</glyph>
<glyph name="five.linprop" format="2">
  <advance width="699"/>
  <outline>
    <contour>
      <point x="286" y="-11" type="curve" smooth="yes"/>
      <point x="502" y="-11"/>
      <point x="625" y="125"/>
      <point x="625" y="287" type="curve" smooth="yes"/>
      <point x="625" y="389"/>
      <point x="551" y="468"/>
      <point x="389" y="468" type="curve" smooth="yes"/>
      <point x="300" y="468"/>
      <point x="222" y="431"/>
      <point x="165" y="356" type="curve"/>
      <point x="184" y="357" type="line"/>
      <point x="289" y="690" type="line"/>
      <point x="248" y="641" type="line"/>
      <point x="633" y="641" type="line"/>
      <point x="675" y="710" type="line"/>
      <point x="226" y="710" type="line"/>
      <point x="107" y="327" type="line"/>
      <point x="175" y="327" type="line"/>
      <point x="226" y="384"/>
      <point x="279" y="413"/>
      <point x="370" y="413" type="curve" smooth="yes"/>
      <point x="479" y="413"/>
      <point x="526" y="366"/>
      <point x="526" y="288" type="curve" smooth="yes"/>
      <point x="526" y="158"/>
      <point x="457" y="44"/>
      <point x="292" y="44" type="curve" smooth="yes"/>
      <point x="142" y="44"/>
      <point x="88" y="110"/>
      <point x="52" y="179" type="curve"/>
      <point x="-14" y="152" type="line"/>
      <point x="22" y="63"/>
      <point x="109" y="-11"/>
    </contour>
  </outline>
</glyph>
<glyph name="four.oldprop" format="2">
  <advance width="751"/>
  <outline>
    <contour>
      <point x="1" y="63" type="line"/>
      <point x="662" y="64" type="line"/>
      <point x="681" y="124" type="line"/>
      <point x="54" y="124" type="line"/>
      <point x="59" y="88" type="line"/>
      <point x="597" y="572" type="line"/>
      <point x="612" y="598" type="line"/>
      <point x="538" y="598" type="line"/>
      <point x="22" y="136" type="line"/>
    </contour>
    <contour>
      <point x="461" y="-124" type="line"/>
      <point x="682" y="598" type="line"/>
      <point x="579" y="598" type="line"/>
      <point x="585" y="586" type="line"/>
      <point x="368" y="-124" type="line"/>
    </contour>
  </outline>
</glyph>
<glyph name="kgreenlandic" format="2">
  <advance width="752"/>
  <outline>
    <contour>
      <point x="394" y="336" type="line"/>
      <point x="545" y="79" type="line" smooth="yes"/>
      <point x="555" y="62"/>
      <point x="564" y="57"/>
      <point x="596" y="57" type="curve" smooth="yes"/>
      <point x="623" y="57"/>
      <point x="650" y="57"/>
      <point x="677" y="57" type="curve"/>
      <point x="666" y="0" type="line"/>
      <point x="633" y="0"/>
      <point x="600" y="0"/>
      <point x="567" y="0" type="curve" smooth="yes"/>
      <point x="496" y="0"/>
      <point x="480" y="12"/>
      <point x="452" y="61" type="curve" smooth="yes"/>
      <point x="314" y="301" type="line"/>
      <point x="315" y="306" type="line"/>
      <point x="425" y="393"/>
      <point x="536" y="478"/>
      <point x="646" y="565" type="curve"/>
      <point x="754" y="565" type="line"/>
      <point x="754" y="550" type="line"/>
      <point x="623" y="461"/>
      <point x="492" y="371"/>
      <point x="361" y="282" type="curve"/>
    </contour>
    <contour>
      <point x="160" y="0" type="line"/>
      <point x="332" y="565" type="line"/>
      <point x="111" y="565" type="line"/>
      <point x="97" y="512" type="line"/>
      <point x="107" y="510" type="line" smooth="yes"/>
      <point x="170" y="499"/>
      <point x="214" y="486"/>
      <point x="209" y="467" type="curve" smooth="yes"/>
      <point x="68" y="0" type="line"/>
    </contour>
  </outline>
</glyph>
<glyph name="one.lintab" format="2">
  <advance width="686"/>
  <outline>
    <contour>
      <point x="347" y="86" type="curve" smooth="yes"/>
      <point x="539" y="710" type="line"/>
      <point x="470" y="710" type="line"/>
      <point x="411" y="643"/>
      <point x="338" y="622"/>
      <point x="189" y="621" type="curve"/>
      <point x="169" y="556" type="line"/>
      <point x="303" y="555"/>
      <point x="402" y="592"/>
      <point x="444" y="664" type="curve"/>
      <point x="421" y="644" type="line"/>
      <point x="250" y="86" type="line" smooth="yes"/>
      <point x="242" y="57"/>
      <point x="190" y="50"/>
      <point x="107" y="50" type="curve" smooth="yes"/>
      <point x="35" y="50" type="line"/>
      <point x="20" y="0" type="line"/>
      <point x="520" y="0" type="line"/>
      <point x="536" y="50" type="line"/>
      <point x="481" y="50" type="line"/>
      <point x="390" y="50"/>
      <point x="339" y="57"/>
    </contour>
  </outline>
</glyph>
<glyph name="parenleft.uc" format="2">
  <advance width="505"/>
  <outline>
    <contour>
      <point x="268" y="-80" type="curve"/>
      <point x="349" y="-80" type="line"/>
      <point x="350" y="-77" type="line"/>
      <point x="265" y="-13"/>
      <point x="176" y="92"/>
      <point x="176" y="264" type="curve" smooth="yes"/>
      <point x="176" y="490"/>
      <point x="373" y="656"/>
      <point x="593" y="747" type="curve"/>
      <point x="595" y="750" type="line"/>
      <point x="503" y="750" type="line"/>
      <point x="307" y="686"/>
      <point x="80" y="510"/>
      <point x="80" y="264" type="curve" smooth="yes"/>
      <point x="80" y="96"/>
      <point x="171" y="-16"/>
    </contour>
  </outline>
</glyph>
<glyph name="ringhalfright" format="2">
  <advance width="613"/>
  <anchor x="319" y="566" name="_top"/>
  <outline>
    <contour>
      <point x="290" y="634" type="line"/>
      <point x="397" y="634"/>
      <point x="464" y="688"/>
      <point x="464" y="758" type="curve" smooth="yes"/>
      <point x="464" y="819"/>
      <point x="411" y="866"/>
      <point x="300" y="866" type="curve"/>
      <point x="300" y="820" type="line"/>
      <point x="351" y="820"/>
      <point x="380" y="800"/>
      <point x="380" y="762" type="curve" smooth="yes"/>
      <point x="380" y="719"/>
      <point x="353" y="680"/>
      <point x="290" y="680" type="curve"/>
    </contour>
  </outline>
</glyph>
<glyph name="seven.midprop" format="2">
  <advance width="694"/>
  <outline>
    <contour>
      <point x="373" y="581" type="line" smooth="yes"/>
      <point x="267" y="581"/>
      <point x="222" y="574"/>
      <point x="206" y="538" type="curve" smooth="yes"/>
      <point x="162" y="433" type="line"/>
      <point x="89" y="433" type="line"/>
      <point x="154" y="648" type="line"/>
      <point x="730" y="648" type="line"/>
      <point x="709" y="578" type="line"/>
      <point x="474" y="407"/>
      <point x="342" y="268"/>
      <point x="235" y="-67" type="curve"/>
      <point x="130" y="-67" type="line"/>
      <point x="245" y="269"/>
      <point x="503" y="503"/>
      <point x="657" y="594" type="curve"/>
      <point x="665" y="581" type="line"/>
    </contour>
  </outline>
</glyph>
<glyph name="zero.linprop" format="2">
  <advance width="750"/>
  <outline>
    <contour>
      <point x="706" y="501" type="curve" smooth="yes"/>
      <point x="706" y="649"/>
      <point x="615" y="735"/>
      <point x="456" y="735" type="curve" smooth="yes"/>
      <point x="192" y="735"/>
      <point x="48" y="457"/>
      <point x="48" y="225" type="curve" smooth="yes"/>
      <point x="48" y="77"/>
      <point x="143" y="-11"/>
      <point x="298" y="-11" type="curve" smooth="yes"/>
      <point x="562" y="-11"/>
      <point x="706" y="269"/>
    </contour>
    <contour>
      <point x="305" y="42" type="curve" smooth="yes"/>
      <point x="187" y="42"/>
      <point x="141" y="98"/>
      <point x="141" y="207" type="curve" smooth="yes"/>
      <point x="141" y="256"/>
      <point x="155" y="330"/>
      <point x="179" y="403" type="curve" smooth="yes"/>
      <point x="227" y="552"/>
      <point x="305" y="682"/>
      <point x="449" y="682" type="curve" smooth="yes"/>
      <point x="567" y="682"/>
      <point x="613" y="626"/>
      <point x="613" y="517" type="curve" smooth="yes"/>
      <point x="613" y="468"/>
      <point x="598" y="394"/>
      <point x="575" y="321" type="curve" smooth="yes"/>
      <point x="527" y="172"/>
      <point x="448" y="42"/>
    </contour>
  </outline>
</glyph>
<glyph name="zero.slashlin" format="2">
  <advance width="686"/>
  <outline>
    <contour>
      <point x="274" y="-11" type="curve" smooth="yes"/>
      <point x="538" y="-11"/>
      <point x="648" y="289"/>
      <point x="648" y="508" type="curve" smooth="yes"/>
      <point x="648" y="648"/>
      <point x="564" y="735"/>
      <point x="410" y="735" type="curve" smooth="yes"/>
      <point x="148" y="735"/>
      <point x="37" y="435"/>
      <point x="37" y="216" type="curve" smooth="yes"/>
      <point x="37" y="76"/>
      <point x="121" y="-11"/>
    </contour>
    <contour>
      <point x="276" y="42" type="curve" smooth="yes"/>
      <point x="174" y="42"/>
      <point x="131" y="89"/>
      <point x="131" y="187" type="curve" smooth="yes"/>
      <point x="131" y="240"/>
      <point x="140" y="302"/>
      <point x="160" y="383" type="curve" smooth="yes"/>
      <point x="208" y="580"/>
      <point x="286" y="682"/>
      <point x="409" y="682" type="curve" smooth="yes"/>
      <point x="511" y="682"/>
      <point x="553" y="635"/>
      <point x="553" y="537" type="curve" smooth="yes"/>
      <point x="553" y="484"/>
      <point x="545" y="422"/>
      <point x="525" y="341" type="curve" smooth="yes"/>
      <point x="477" y="144"/>
      <point x="399" y="42"/>
    </contour>
    <contour>
      <point x="104" y="182" type="line"/>
      <point x="597" y="491" type="line"/>
      <point x="585" y="542" type="line"/>
      <point x="88" y="231" type="line"/>
    </contour>
  </outline>
</glyph>
